<svg width="48" height="48" viewBox="0 0 48 48" fill="none" xmlns="http://www.w3.org/2000/svg">
<path d="M7 24C7 33.4 14.6 41 24 41C33.4 41 41 33.4 41 24C41 14.6 33.4 7 24 7C14.6 7 7 14.6 7 24Z" fill="#131517"/>
<path d="M24 44C13 44 4 35 4 24C4 13 13 4 24 4C28.7 4 33.3 5.7 36.9 8.8L34.3 11.8C31.5 9.3 27.8 8 24 8C15.2 8 8 15.2 8 24C8 32.8 15.2 40 24 40V44Z" fill="#606571"/>
<path d="M27 12L19 6L27 0V12Z" fill="#FFC619"/>
<path d="M11 24C11 24.6 10.6 25 10 25H7V23H10C10.6 23 11 23.4 11 24ZM24 37C23.4 37 23 37.4 23 38V41H25V38C25 37.4 24.6 37 24 37ZM38 23C37.4 23 37 23.4 37 24C37 24.6 37.4 25 38 25H41V23H38Z" fill="white"/>
<path d="M24 44C13 44 4 35 4 24C4 19.3 5.7 14.7 8.8 11.1L11.8 13.7C9.3 16.5 8 20.2 8 24C8 32.8 15.2 40 24 40C32.8 40 40 32.8 40 24C40 15.2 32.8 8 24 8V4C35 4 44 13 44 24C44 35 35 44 24 44Z" fill="#FFC619"/>
<path d="M23 30H15V28.2L18.8 24.2C19.7 23.1 20.2 22.3 20.2 21.7C20.2 21.2 20.1 20.8 19.9 20.5C19.7 20.2 19.4 20.1 18.9 20.1C18.5 20.1 18.1 20.3 17.9 20.6C17.6 21 17.5 21.4 17.5 21.9H15C15 21.2 15.2 20.5 15.5 19.9C15.9 19.3 16.4 18.8 17 18.5C17.6 18.2 18.1 18 18.9 18C20.2 18 21.2 18.3 21.9 18.9C22.6 19.5 22.9 20.3 22.9 21.4C22.9 21.9 22.8 22.3 22.6 22.8C22.4 23.2 22.2 23.7 21.8 24.2C21.4 24.7 20.8 25.3 20 26.1L18.6 28H23V30ZM31.8 26H33V28H31.8V30H29V28H24.4L24.2 26.4L29 18H31.8V26ZM26.8 26H29V21.6L28.8 21.9L26.8 26Z" fill="white"/>
</svg>
