<svg width="373" height="373" viewBox="0 0 373 373" fill="none" xmlns="http://www.w3.org/2000/svg">
<g filter="url(#filter0_d_44_40)">
<circle cx="186" cy="169" r="122" fill="#FFC619" fill-opacity="0.19" shape-rendering="crispEdges"/>
</g>
<g filter="url(#filter1_d_44_40)">
<circle cx="186" cy="169" r="118.5" stroke="url(#paint0_angular_44_40)" stroke-opacity="0.66" stroke-width="7" shape-rendering="crispEdges"/>
</g>
<g filter="url(#filter2_d_44_40)">
<circle cx="186.5" cy="169.5" r="133.5" stroke="url(#paint1_angular_44_40)" stroke-opacity="0.4" stroke-width="2" shape-rendering="crispEdges"/>
</g>
<g filter="url(#filter3_d_44_40)">
<circle cx="186" cy="170" r="95" stroke="url(#paint2_angular_44_40)" stroke-opacity="0.4" stroke-width="2" shape-rendering="crispEdges"/>
</g>
<path d="M133.674 140.193L130.538 145.089L127.418 140.193H124.138V151.393H127.738V146.257L129.578 149.121H131.514L133.354 146.273V151.393H136.954V140.193H133.674ZM138.497 147.553C138.497 150.321 140.513 151.649 142.913 151.649C145.313 151.649 147.345 150.321 147.345 147.553C147.345 144.785 145.313 143.457 142.913 143.457C140.513 143.457 138.497 144.785 138.497 147.553ZM144.049 147.553C144.049 148.273 143.761 148.865 142.913 148.865C142.081 148.865 141.793 148.273 141.793 147.553C141.793 146.833 142.081 146.241 142.913 146.241C143.761 146.241 144.049 146.833 144.049 147.553ZM161.446 151.393L159.446 147.585L161.366 143.713H157.862L156.678 146.321H156.262V143.713H153.014V146.321H152.598L151.414 143.713H147.91L149.83 147.585L147.83 151.393H151.334L152.518 148.945H153.014V151.393H156.262V148.945H156.758L157.942 151.393H161.446ZM166.028 151.393V148.849H167.58V151.393H170.956V143.713H167.58V146.257H166.028V143.713H162.652V151.393H166.028ZM172.421 147.553C172.421 150.321 174.437 151.649 176.837 151.649C179.237 151.649 181.269 150.321 181.269 147.553C181.269 144.785 179.237 143.457 176.837 143.457C174.437 143.457 172.421 144.785 172.421 147.553ZM177.973 147.553C177.973 148.273 177.685 148.865 176.837 148.865C176.005 148.865 175.717 148.273 175.717 147.553C175.717 146.833 176.005 146.241 176.837 146.241C177.685 146.241 177.973 146.833 177.973 147.553ZM198.523 151.393V143.713H195.163V148.705H194.011V143.713H190.635V148.705H189.499V143.713H186.123V151.393H198.523ZM204.674 147.921L203.09 143.713H199.602L203.122 151.441C202.802 152.065 202.29 152.321 201.698 152.321C201.282 152.321 200.93 152.257 200.562 152.161V154.881C201.106 155.041 201.634 155.153 202.242 155.153C203.81 155.153 205.426 154.401 206.338 151.857L209.266 143.713H205.842L204.674 147.921ZM213.514 151.393V148.161L214.698 150.049H215.866L217.05 148.161V151.393H220.106V143.713H217.354L215.274 147.009L213.21 143.713H210.458V151.393H213.514ZM221.571 147.505C221.571 150.465 223.939 151.649 226.403 151.649C227.603 151.649 228.451 151.505 229.203 151.249V148.977C228.547 149.185 227.811 149.281 226.995 149.281C226.003 149.281 225.075 148.977 224.803 148.321H229.539C230.019 146.097 229.155 143.457 225.699 143.457C223.987 143.457 221.571 144.497 221.571 147.505ZM226.803 146.769H224.771C224.771 146.145 225.203 145.681 225.875 145.681C226.659 145.681 226.883 146.321 226.803 146.769ZM236.049 151.393V146.401H238.033V143.713H230.705V146.401H232.689V151.393H236.049ZM244.278 151.393C246.454 151.393 247.542 150.129 247.542 148.529C247.542 146.929 246.454 145.681 244.278 145.681H242.79V143.713H239.414V151.393H244.278ZM242.774 147.729H243.334C243.91 147.729 244.214 148.033 244.214 148.497C244.214 148.945 243.91 149.249 243.334 149.249H242.774V147.729Z" fill="white"/>
<path d="M91.384 187.619V180.619H92.868L97.04 187.619H104.152L98.076 177.735L104.04 168.019H96.928L93.008 174.963H91.384V168.019H84.916V187.619H91.384ZM109.851 175.803V174.179H104.671V193.779H110.579V186.807C111.391 187.535 112.623 188.067 114.247 188.067C118.531 188.067 120.407 184.595 120.407 180.899C120.407 177.203 118.531 173.731 114.247 173.731C112.231 173.731 110.747 174.683 109.851 175.803ZM114.331 180.899C114.331 182.103 113.715 183.335 112.287 183.335C111.475 183.335 110.803 182.859 110.551 182.383V179.415C110.831 178.939 111.475 178.463 112.287 178.463C113.715 178.463 114.331 179.695 114.331 180.899ZM128.796 181.543L126.024 174.179H119.92L126.08 187.703C125.52 188.795 124.624 189.243 123.588 189.243C122.86 189.243 122.244 189.131 121.6 188.963V193.723C122.552 194.003 123.476 194.199 124.54 194.199C127.284 194.199 130.112 192.883 131.708 188.431L136.832 174.179H130.84L128.796 181.543ZM143.707 187.619V178.883H148.551V174.179H137.799V187.619H143.707ZM155.602 178.771H157.198V187.619H163.106V174.179H150.506C150.254 178.883 150.226 182.551 148.406 182.887C148.07 182.943 147.706 182.915 147.258 182.803V187.563C148.126 187.843 149.106 187.983 149.974 187.983C153.81 187.983 155.07 184.567 155.602 178.771ZM164.569 180.899C164.569 185.743 168.097 188.067 172.297 188.067C176.497 188.067 180.053 185.743 180.053 180.899C180.053 176.055 176.497 173.731 172.297 173.731C168.097 173.731 164.569 176.055 164.569 180.899ZM174.285 180.899C174.285 182.159 173.781 183.195 172.297 183.195C170.841 183.195 170.337 182.159 170.337 180.899C170.337 179.639 170.841 178.603 172.297 178.603C173.781 178.603 174.285 179.639 174.285 180.899ZM180.942 181.263C180.942 186.107 184.666 188.067 188.53 188.067C190.238 188.067 191.806 187.787 193.206 187.311V182.495C192.366 182.887 191.162 183.167 189.874 183.167C188.362 183.167 187.018 182.551 187.018 180.899C187.018 179.191 188.418 178.575 189.986 178.575C191.05 178.575 192.226 178.911 193.066 179.331V174.487C191.778 173.983 190.35 173.675 188.922 173.675C184.918 173.675 180.942 175.831 180.942 181.263ZM202.236 181.543L199.464 174.179H193.36L199.52 187.703C198.96 188.795 198.064 189.243 197.028 189.243C196.3 189.243 195.684 189.131 195.04 188.963V193.723C195.992 194.003 196.916 194.199 197.98 194.199C200.724 194.199 203.552 192.883 205.148 188.431L210.272 174.179H204.28L202.236 181.543ZM219.862 187.619V178.883H223.334V174.179H210.51V178.883H213.982V187.619H219.862ZM223.852 180.899C223.852 185.743 227.38 188.067 231.58 188.067C235.78 188.067 239.336 185.743 239.336 180.899C239.336 176.055 235.78 173.731 231.58 173.731C227.38 173.731 223.852 176.055 223.852 180.899ZM233.568 180.899C233.568 182.159 233.064 183.195 231.58 183.195C230.124 183.195 229.62 182.159 229.62 180.899C229.62 179.639 230.124 178.603 231.58 178.603C233.064 178.603 233.568 179.639 233.568 180.899ZM254.504 187.619V174.179H248.596V179.471C248.232 179.611 247.812 179.695 247.392 179.695C246.748 179.695 246.216 179.415 246.216 178.631V174.179H240.308V179.387C240.308 182.971 243.052 184.399 245.544 184.399C246.692 184.399 247.7 184.287 248.596 183.979V187.619H254.504ZM262.435 187.619V183.167H265.151V187.619H271.059V174.179H265.151V178.631H262.435V174.179H256.527V187.619H262.435ZM272.504 180.899C272.504 185.743 276.032 188.067 280.232 188.067C284.432 188.067 287.988 185.743 287.988 180.899C287.988 176.055 284.432 173.731 280.232 173.731C276.032 173.731 272.504 176.055 272.504 180.899ZM282.22 180.899C282.22 182.159 281.716 183.195 280.232 183.195C278.776 183.195 278.272 182.159 278.272 180.899C278.272 179.639 278.776 178.603 280.232 178.603C281.716 178.603 282.22 179.639 282.22 180.899Z" fill="url(#paint3_linear_44_40)"/>
<path d="M169 55C169 64.4 176.6 72 186 72C195.4 72 203 64.4 203 55C203 45.6 195.4 38 186 38C176.6 38 169 45.6 169 55Z" fill="#131517"/>
<path d="M186 75C175 75 166 66 166 55C166 44 175 35 186 35C190.7 35 195.3 36.7 198.9 39.8L196.3 42.8C193.5 40.3 189.8 39 186 39C177.2 39 170 46.2 170 55C170 63.8 177.2 71 186 71V75Z" fill="#606571"/>
<path d="M189 43L181 37L189 31V43Z" fill="#FFC619"/>
<path d="M173 55C173 55.6 172.6 56 172 56H169V54H172C172.6 54 173 54.4 173 55ZM186 68C185.4 68 185 68.4 185 69V72H187V69C187 68.4 186.6 68 186 68ZM200 54C199.4 54 199 54.4 199 55C199 55.6 199.4 56 200 56H203V54H200Z" fill="white"/>
<path d="M186 75C175 75 166 66 166 55C166 50.3 167.7 45.7 170.8 42.1L173.8 44.7C171.3 47.5 170 51.2 170 55C170 63.8 177.2 71 186 71C194.8 71 202 63.8 202 55C202 46.2 194.8 39 186 39V35C197 35 206 44 206 55C206 66 197 75 186 75Z" fill="#FFC619"/>
<path d="M185 61H177V59.2L180.8 55.2C181.7 54.1 182.2 53.3 182.2 52.7C182.2 52.2 182.1 51.8 181.9 51.5C181.7 51.2 181.4 51.1 180.9 51.1C180.5 51.1 180.1 51.3 179.9 51.6C179.6 52 179.5 52.4 179.5 52.9H177C177 52.2 177.2 51.5 177.5 50.9C177.9 50.3 178.4 49.8 179 49.5C179.6 49.2 180.1 49 180.9 49C182.2 49 183.2 49.3 183.9 49.9C184.6 50.5 184.9 51.3 184.9 52.4C184.9 52.9 184.8 53.3 184.6 53.8C184.4 54.2 184.2 54.7 183.8 55.2C183.4 55.7 182.8 56.3 182 57.1L180.6 59H185V61ZM193.8 57H195V59H193.8V61H191V59H186.4L186.2 57.4L191 49H193.8V57ZM188.8 57H191V52.6L190.8 52.9L188.8 57Z" fill="white"/>
<defs>
<filter id="filter0_d_44_40" x="12" y="12" width="348" height="348" filterUnits="userSpaceOnUse" color-interpolation-filters="sRGB">
<feFlood flood-opacity="0" result="BackgroundImageFix"/>
<feColorMatrix in="SourceAlpha" type="matrix" values="0 0 0 0 0 0 0 0 0 0 0 0 0 0 0 0 0 0 127 0" result="hardAlpha"/>
<feOffset dy="17"/>
<feGaussianBlur stdDeviation="26"/>
<feComposite in2="hardAlpha" operator="out"/>
<feColorMatrix type="matrix" values="0 0 0 0 0 0 0 0 0 0 0 0 0 0 0 0 0 0 0.58 0"/>
<feBlend mode="normal" in2="BackgroundImageFix" result="effect1_dropShadow_44_40"/>
<feBlend mode="normal" in="SourceGraphic" in2="effect1_dropShadow_44_40" result="shape"/>
</filter>
<filter id="filter1_d_44_40" x="12" y="12" width="348" height="348" filterUnits="userSpaceOnUse" color-interpolation-filters="sRGB">
<feFlood flood-opacity="0" result="BackgroundImageFix"/>
<feColorMatrix in="SourceAlpha" type="matrix" values="0 0 0 0 0 0 0 0 0 0 0 0 0 0 0 0 0 0 127 0" result="hardAlpha"/>
<feOffset dy="17"/>
<feGaussianBlur stdDeviation="26"/>
<feComposite in2="hardAlpha" operator="out"/>
<feColorMatrix type="matrix" values="0 0 0 0 0 0 0 0 0 0 0 0 0 0 0 0 0 0 0.58 0"/>
<feBlend mode="normal" in2="BackgroundImageFix" result="effect1_dropShadow_44_40"/>
<feBlend mode="normal" in="SourceGraphic" in2="effect1_dropShadow_44_40" result="shape"/>
</filter>
<filter id="filter2_d_44_40" x="0" y="0" width="373" height="373" filterUnits="userSpaceOnUse" color-interpolation-filters="sRGB">
<feFlood flood-opacity="0" result="BackgroundImageFix"/>
<feColorMatrix in="SourceAlpha" type="matrix" values="0 0 0 0 0 0 0 0 0 0 0 0 0 0 0 0 0 0 127 0" result="hardAlpha"/>
<feOffset dy="17"/>
<feGaussianBlur stdDeviation="26"/>
<feComposite in2="hardAlpha" operator="out"/>
<feColorMatrix type="matrix" values="0 0 0 0 0 0 0 0 0 0 0 0 0 0 0 0 0 0 0.58 0"/>
<feBlend mode="normal" in2="BackgroundImageFix" result="effect1_dropShadow_44_40"/>
<feBlend mode="normal" in="SourceGraphic" in2="effect1_dropShadow_44_40" result="shape"/>
</filter>
<filter id="filter3_d_44_40" x="38" y="39" width="296" height="296" filterUnits="userSpaceOnUse" color-interpolation-filters="sRGB">
<feFlood flood-opacity="0" result="BackgroundImageFix"/>
<feColorMatrix in="SourceAlpha" type="matrix" values="0 0 0 0 0 0 0 0 0 0 0 0 0 0 0 0 0 0 127 0" result="hardAlpha"/>
<feOffset dy="17"/>
<feGaussianBlur stdDeviation="26"/>
<feComposite in2="hardAlpha" operator="out"/>
<feColorMatrix type="matrix" values="0 0 0 0 0 0 0 0 0 0 0 0 0 0 0 0 0 0 0.58 0"/>
<feBlend mode="normal" in2="BackgroundImageFix" result="effect1_dropShadow_44_40"/>
<feBlend mode="normal" in="SourceGraphic" in2="effect1_dropShadow_44_40" result="shape"/>
</filter>
<radialGradient id="paint0_angular_44_40" cx="0" cy="0" r="1" gradientUnits="userSpaceOnUse" gradientTransform="translate(186 169) rotate(90) scale(122)">
<stop offset="0.489041" stop-color="#F69020" stop-opacity="0"/>
<stop offset="0.503497" stop-color="#FFC619"/>
</radialGradient>
<radialGradient id="paint1_angular_44_40" cx="0" cy="0" r="1" gradientUnits="userSpaceOnUse" gradientTransform="translate(186.5 169.5) rotate(90) scale(134.5)">
<stop offset="0.489041" stop-color="#FFC619" stop-opacity="0"/>
<stop offset="0.503497" stop-color="#FFC619"/>
</radialGradient>
<radialGradient id="paint2_angular_44_40" cx="0" cy="0" r="1" gradientUnits="userSpaceOnUse" gradientTransform="translate(186 170) rotate(90) scale(96)">
<stop offset="0.489041" stop-color="#F69020" stop-opacity="0"/>
<stop offset="0.503497" stop-color="#F69020"/>
</radialGradient>
<linearGradient id="paint3_linear_44_40" x1="186" y1="167.619" x2="186" y2="207.211" gradientUnits="userSpaceOnUse">
<stop stop-color="#FFC619"/>
<stop offset="1" stop-color="#F69020"/>
</linearGradient>
</defs>
</svg>
