<svg width="62" height="61" viewBox="0 0 62 61" fill="none" xmlns="http://www.w3.org/2000/svg">
<path d="M37.84 0.156982L36.8784 1.11854L32.5169 5.48011L37.84 10.8032L43.1631 5.48011L37.84 0.156982ZM20.84 3.44011C20.4793 3.44014 20.1334 3.58344 19.8784 3.83848C19.6233 4.09352 19.48 4.43942 19.48 4.80011V11.6001C19.48 11.9608 19.6233 12.3067 19.8784 12.5617C20.1334 12.8168 20.4793 12.9601 20.84 12.9601H22.2C23.8258 12.9601 24.1794 13.449 24.5269 14.2298C24.8744 15.0106 24.92 16.184 24.92 17.0401C24.92 18.1504 24.7854 19.3178 24.5959 20.4401C23.4004 20.019 22.2533 19.7676 21.1906 19.7601C19.9897 19.7515 18.7955 20.0887 17.942 20.9421C17.578 21.3062 17.3339 21.7411 17.1452 22.2012L17.1212 22.1932L2.17453 60.082L41.4153 46.6467L41.4073 46.6228C41.9111 46.4327 42.3845 46.1713 42.778 45.7781C43.7952 44.7608 44.071 43.2944 43.9202 41.8282C43.825 40.9039 43.5573 39.9276 43.1711 38.9143C44.2449 38.8493 45.3868 38.8001 46.68 38.8001C48.6188 38.8001 50.4531 39.0346 51.6445 39.4482C52.2402 39.6551 52.66 39.9084 52.8638 40.1017C53.0675 40.2949 53.0789 40.351 53.0789 40.5001V41.5201C53.0789 41.8808 53.2222 42.2267 53.4773 42.4817C53.7323 42.7368 54.0782 42.8801 54.4389 42.8801H60.28C60.462 42.8802 60.6422 42.8437 60.8098 42.7729C60.9774 42.702 61.1292 42.5983 61.256 42.4678C61.3828 42.3372 61.4821 42.1826 61.5481 42.0129C61.6141 41.8433 61.6453 41.6622 61.64 41.4803C61.64 41.4803 61.6 39.8043 61.6002 39.7856C61.6002 39.7847 61.6002 39.7838 61.6002 39.7829C61.6251 36.6955 59.6804 34.3027 57.2811 32.8315C54.8818 31.3603 51.9699 30.6401 49.3708 30.6401C45.0693 30.6401 41.8696 31.756 39.7286 32.8607C39.0535 31.9438 38.3095 31.0199 37.4973 30.1009C37.9824 29.9461 38.4747 29.802 38.9503 29.6732C39.9085 29.4138 40.8142 29.2012 41.5189 29.0437C42.2236 28.8862 42.6127 28.8186 42.9666 28.7196C44.0644 28.4119 45.5631 28.0358 46.9058 27.1392C48.2484 26.2425 49.4 24.6298 49.4 22.4801C49.4 21.8916 49.1146 21.5642 48.9272 21.1201H49.4C52.3074 21.1201 54.84 18.7725 54.84 15.6801V13.8101C54.84 13.8101 54.8502 13.6248 54.9781 13.417C55.106 13.2091 55.2083 12.9601 56.2 12.9601H57.56C57.9207 12.9601 58.2666 12.8168 58.5216 12.5617C58.7767 12.3067 58.92 11.9608 58.92 11.6001V6.16276C58.92 5.80208 58.7767 5.45618 58.5216 5.20114C58.2666 4.9461 57.9207 4.8028 57.56 4.80276H55.3553C51.7406 4.79972 49.5079 6.47295 48.3136 8.06464C47.4281 9.24432 47.1553 10.7022 46.9456 11.9534C46.8537 12.5022 46.8721 12.5614 46.8314 12.9601H46.68C44.3378 12.9601 42.5025 13.8091 41.3861 15.1489C40.2697 16.4886 39.88 18.1734 39.88 19.7601V21.6062C37.651 22.3411 35.0982 23.5344 32.902 25.6118C31.6075 24.5109 30.3208 23.5272 29.0584 22.7059C30.4523 20.248 31.72 16.9318 31.72 12.9601C31.72 10.6179 30.9437 8.25277 29.3187 6.44167C27.6938 4.63057 25.2038 3.44011 22.0991 3.44011H22.0964H22.0778H20.84ZM37.84 4.00323L39.3169 5.48011L37.84 6.95698L36.3631 5.48011L37.84 4.00323ZM9.28 5.59698L8.31844 6.55855L3.95687 10.9201L9.28 16.2432L14.6031 10.9201L9.28 5.59698ZM22.2 6.1787C24.572 6.20584 26.1924 7.03002 27.2947 8.25854C28.4152 9.50744 29 11.2223 29 12.9601C29 15.7917 28.1754 18.1018 27.215 20.0921C27.3676 19.0498 27.64 18.128 27.64 17.0401C27.64 16.184 27.6856 14.6359 27.0131 13.1248C26.3406 11.6137 24.6542 10.2401 22.2 10.2401V6.1787ZM55.3527 7.52276C55.3535 7.52276 55.3544 7.52276 55.3553 7.52276H56.2V10.2401C54.4717 10.2401 53.214 11.0961 52.6619 11.9932C52.1098 12.8904 52.12 13.8101 52.12 13.8101V15.6801C52.12 17.3477 50.9126 18.4001 49.4 18.4001H46.68C46.4322 18.4001 46.1891 18.4678 45.977 18.5959C45.7649 18.724 45.5918 18.9076 45.4765 19.1269C45.3611 19.3462 45.3078 19.5928 45.3223 19.8402C45.3369 20.0875 45.4188 20.3262 45.5591 20.5304C45.5595 20.5311 45.6651 20.6648 45.6733 20.6739C45.6814 20.683 45.6867 20.6894 45.6919 20.6951C45.7022 20.7064 45.7141 20.7182 45.7291 20.735C45.759 20.7685 45.802 20.8185 45.8539 20.881C45.9577 21.0061 46.0955 21.1835 46.2284 21.3857C46.4943 21.7903 46.68 22.2978 46.68 22.4801C46.68 23.7821 46.2185 24.3257 45.3944 24.876C44.5702 25.4264 43.3483 25.7881 42.2334 26.1006C42.2786 26.0879 41.651 26.2276 40.9239 26.3901C40.1969 26.5526 39.2558 26.7741 38.2411 27.0489C36.6831 27.4707 35.1323 28.1477 33.6936 28.8684C35.9712 26.0345 39.0983 24.4932 41.6066 23.7896C41.8923 23.7096 42.1441 23.5383 42.3235 23.3019C42.5028 23.0655 42.5999 22.7769 42.6 22.4801V19.7601C42.6 18.6268 42.8903 17.5916 43.4739 16.8914C44.0575 16.1911 44.9422 15.6801 46.68 15.6801H48.04C48.3881 15.6799 48.7229 15.5462 48.9754 15.3065C49.228 15.0668 49.379 14.7395 49.3973 14.3918C49.3973 14.3918 49.4468 13.4865 49.6284 12.4023C49.8101 11.3181 50.2173 10.0541 50.4864 9.69558C50.4873 9.69558 50.4882 9.69558 50.4891 9.69558C51.335 8.56768 52.5002 7.52036 55.3527 7.52276ZM9.28 9.44323L10.7569 10.9201L9.28 12.397L7.80312 10.9201L9.28 9.44323ZM56.88 21.1201L53.48 24.5201L56.88 27.9201L60.2773 24.5201L56.88 21.1201ZM3.84 22.4801L0.439999 25.8801L3.84 29.2801L7.23734 25.8801L3.84 22.4801ZM21.1694 22.4801C21.8823 22.4851 22.8672 22.7456 23.9983 23.2026C23.6094 24.6875 23.2347 25.7823 23.1191 26.1325C23.0258 26.4153 23.028 26.7209 23.1252 27.0024C23.2224 27.2839 23.4093 27.5257 23.6573 27.6907C23.9052 27.8557 24.2004 27.9348 24.4977 27.9157C24.7949 27.8967 25.0776 27.7807 25.3025 27.5854C25.4932 27.4193 25.8273 27.1078 26.4341 26.4167C26.7582 26.0474 27.1363 25.5802 27.5337 25.046C28.6918 25.7728 29.9004 26.6538 31.1091 27.6625C30.9331 27.9029 30.7492 28.1296 30.5831 28.3876L27.8578 32.6243C27.689 32.8886 27.6167 33.2032 27.6532 33.5147C27.6897 33.8262 27.8327 34.1155 28.0581 34.3336C28.2834 34.5518 28.5772 34.6853 28.8897 34.7117C29.2022 34.7381 29.5143 34.6557 29.773 34.4784L33.8636 31.6548C34.1036 31.4891 34.4176 31.3177 34.772 31.1475C35.7475 32.1981 36.6361 33.2572 37.4123 34.2978C36.9776 34.632 36.6378 34.9273 36.573 34.991C36.5721 34.9919 36.5712 34.9928 36.5703 34.9937L33.4837 38.0431C33.2616 38.2627 33.1218 38.5521 33.0878 38.8627C33.0539 39.1733 33.128 39.4861 33.2975 39.7485C33.467 40.0109 33.7218 40.2069 34.0188 40.3037C34.3159 40.4004 34.6372 40.3919 34.9287 40.2796C34.9288 40.2796 36.714 39.6019 40.3342 39.164C40.8332 40.3028 41.1354 41.3228 41.2161 42.1071C41.3165 43.0825 41.1228 43.587 40.8548 43.8549C40.7501 43.9596 40.6 44.0471 40.4112 44.1153L40.2731 44.1631C40.0318 44.2261 39.7267 44.2562 39.3222 44.2321C38.4734 44.1815 37.3054 43.863 35.9833 43.2626C33.3391 42.0618 30.0869 39.7655 27.0211 36.699C23.9552 33.6325 21.6585 30.3811 20.4575 27.7368C19.857 26.4147 19.5386 25.2439 19.488 24.3953C19.4628 23.9735 19.4962 23.6547 19.565 23.4098C19.573 23.3813 19.5852 23.362 19.5942 23.3354C19.6633 23.1312 19.755 22.9754 19.8652 22.8653C20.0888 22.6416 20.4554 22.475 21.1694 22.4801ZM17.6897 28.1645C17.7842 28.3965 17.8718 28.6267 17.9792 28.8631C19.3684 31.9217 21.8371 35.3606 25.098 38.6221C28.3589 41.8838 31.7983 44.3519 34.857 45.7409C34.9803 45.7968 35.0989 45.8398 35.2209 45.8923L6.86547 55.6009L17.6897 28.1645ZM49.3708 33.3601C51.4419 33.3601 53.9821 33.9989 55.86 35.1504C57.7379 36.302 58.896 37.7954 58.8802 39.759C58.879 39.8637 58.8851 39.9942 58.8881 40.1601H55.6475C55.5423 39.3862 55.2621 38.6267 54.7364 38.1281C54.1229 37.5462 53.3684 37.1692 52.5344 36.8796C50.8664 36.3005 48.8212 36.0801 46.68 36.0801C43.1799 36.0801 40.7852 36.4387 38.7086 36.7787C39.0206 36.4808 42.3746 33.3601 49.3708 33.3601ZM47.36 49.117L46.3984 50.0785L42.0369 54.4401L47.36 59.7632L52.6831 54.4401L47.36 49.117ZM47.36 52.9632L48.8369 54.4401L47.36 55.917L45.8831 54.4401L47.36 52.9632Z" fill="url(#paint0_linear_1_78)"/>
<defs>
<linearGradient id="paint0_linear_1_78" x1="31.0403" y1="0.156982" x2="31.0403" y2="60.082" gradientUnits="userSpaceOnUse">
<stop stop-color="#FFC619"/>
<stop offset="0.520833" stop-color="#F69020"/>
<stop offset="1" stop-color="#EA422A"/>
</linearGradient>
</defs>
</svg>
