<svg width="63" height="63" viewBox="0 0 63 63" fill="none" xmlns="http://www.w3.org/2000/svg">
<path d="M54.9081 0.690462C53.275 0.690462 51.6419 1.30812 50.4066 2.54343L47.9726 4.97741C47.5015 5.44851 47.4492 6.19702 47.8522 6.73093L45.0047 9.57843C39.1998 15.3834 34.358 17.1421 29.4952 18.7648C24.6377 20.3874 19.6756 21.8687 14.5773 26.9723L2.28173 39.2626C0.156577 41.3877 0.156577 44.8738 2.28173 47.0042L9.13877 53.8612L15.9958 60.713C18.1262 62.8434 21.6123 62.8434 23.7374 60.713L36.0277 48.4227C41.1313 43.3244 42.6126 38.3623 44.23 33.5048C45.8527 28.642 47.6114 23.8002 53.4216 17.9953L56.2691 15.1478C56.803 15.5509 57.5515 15.4985 58.0226 15.0274L60.4566 12.5934C62.9324 10.1176 62.9324 6.06616 60.4566 3.59031L59.4097 2.54343C58.1692 1.30812 56.5413 0.685227 54.9081 0.690462ZM54.9081 3.34952C55.8503 3.35476 56.7925 3.71593 57.5201 4.43827L58.5617 5.48515C60.0117 6.93507 60.0117 9.24866 58.5617 10.6986L57.0856 12.1747L53.9555 9.04453C53.9188 9.00788 53.877 8.97124 53.8351 8.93984L50.8201 5.92484L52.2962 4.43827C53.0238 3.71593 53.966 3.34952 54.9081 3.34952ZM31.5 3.35999C30.762 3.35999 30.16 3.96195 30.16 4.69999C30.16 5.43804 30.762 6.03999 31.5 6.03999C32.2381 6.03999 32.84 5.43804 32.84 4.69999C32.84 3.96195 32.2381 3.35999 31.5 3.35999ZM39.54 7.37999C38.802 7.37999 38.2 7.98195 38.2 8.71999C38.2 9.45804 38.802 10.06 39.54 10.06C40.2781 10.06 40.88 9.45804 40.88 8.71999C40.88 7.98195 40.2781 7.37999 39.54 7.37999ZM49.7366 8.63624L54.3638 13.2634L51.5215 16.1005C49.5115 18.1157 47.9726 20.0472 46.7059 21.9263L41.0737 16.2941C42.9528 15.0274 44.8843 13.4885 46.8995 11.4785L49.7366 8.63624ZM38.7392 17.7441L45.256 24.2609C44.1096 26.2918 43.2721 28.2442 42.5812 30.1181L35.3106 27.6894L32.8819 20.4188C34.7558 19.7279 36.7082 18.8904 38.7392 17.7441ZM30.3537 21.3034L32.9813 29.1759C33.1122 29.5737 33.4263 29.8878 33.8241 30.0187L41.6966 32.6463C41.6913 32.6463 41.6913 32.6516 41.6913 32.6516C40.053 37.5719 38.8177 41.8483 34.1381 46.5331L21.8478 58.8234C20.7434 59.9226 18.9951 59.9226 17.8906 58.8234L4.17658 45.1094C3.07736 44.0049 3.07736 42.2566 4.17658 41.1522L16.4669 28.8619C21.1517 24.1823 25.4281 22.947 30.3485 21.3087C30.3485 21.3087 30.3537 21.3087 30.3537 21.3034ZM56.96 22.12C56.222 22.12 55.62 22.7219 55.62 23.46C55.62 24.198 56.222 24.8 56.96 24.8C57.6981 24.8 58.3 24.198 58.3 23.46C58.3 22.7219 57.6981 22.12 56.96 22.12ZM60.98 27.48C60.242 27.48 59.64 28.0819 59.64 28.82C59.64 29.558 60.242 30.16 60.98 30.16C61.7181 30.16 62.32 29.558 62.32 28.82C62.32 28.0819 61.7181 27.48 60.98 27.48ZM54.28 30.16C53.542 30.16 52.94 30.7619 52.94 31.5C52.94 32.238 53.542 32.84 54.28 32.84C55.0181 32.84 55.62 32.238 55.62 31.5C55.62 30.7619 55.0181 30.16 54.28 30.16ZM28.82 31.5C27.3387 31.5 26.14 32.6987 26.14 34.18C26.14 35.6613 27.3387 36.86 28.82 36.86C30.3013 36.86 31.5 35.6613 31.5 34.18C31.5 32.6987 30.3013 31.5 28.82 31.5ZM18.5083 32.259C18.1576 32.2642 17.8278 32.4055 17.5766 32.6516L9.13877 41.0946C8.61533 41.618 8.61533 42.4712 9.13877 42.9947L20.0053 53.8612C20.5288 54.3794 21.382 54.3794 21.9054 53.8612L30.3432 45.4182C30.8667 44.8948 30.8667 44.0468 30.3432 43.5233L19.4767 32.6516C19.2202 32.4003 18.8695 32.259 18.5083 32.259ZM18.524 35.4991L27.501 44.4708L20.9527 51.0137L11.981 42.0473L18.524 35.4991Z" fill="url(#paint0_linear_1_66)"/>
<defs>
<linearGradient id="paint0_linear_1_66" x1="31.5039" y1="0.69043" x2="31.5039" y2="62.3108" gradientUnits="userSpaceOnUse">
<stop stop-color="#FFC619"/>
<stop offset="0.520833" stop-color="#F69020"/>
<stop offset="1" stop-color="#EA422A"/>
</linearGradient>
</defs>
</svg>
