<svg width="68" height="65" viewBox="0 0 68 65" fill="none" xmlns="http://www.w3.org/2000/svg">
<path d="M46.58 0.847412L45.815 1.99491L33.745 19.3774L23.12 22.5224L23.0775 22.5649H23.035C21.691 23.0696 20.6497 23.9515 19.8475 25.0724L19.805 25.1149V25.1574L10.625 39.3099L10.285 38.2049L1.36002 40.8824L0.085022 41.3074L0.467522 42.5824L6.58752 63.1099L6.97002 64.4274L8.28752 64.0449L15.895 61.7074L17.2125 61.3249L16.7875 60.0499L16.0225 57.4574L26.69 55.0774C29.9678 54.3337 32.9535 52.5646 35.0625 49.8499L35.5725 49.2124L40.715 52.8249L41.82 53.6324L42.585 52.4849L67.235 16.8699L68 15.7649L66.8525 14.9574L47.685 1.65491L46.58 0.847412ZM47.26 4.62991L64.2175 16.4449L54.485 30.5124C55.7335 26.5333 53.821 21.768 49.7675 18.9524C49.7569 18.9471 49.7781 18.9152 49.7675 18.9099C49.7569 18.8993 49.7356 18.9205 49.725 18.9099C47.361 17.2418 44.5506 16.5458 41.99 16.7849C40.5238 16.923 39.1478 17.3905 37.9525 18.1449L47.26 4.62991ZM52.955 12.7049C52.2113 12.6996 51.4941 13.0662 51.0425 13.7249C50.32 14.7768 50.5856 16.1899 51.6375 16.9124C52.6894 17.6349 54.145 17.3693 54.8675 16.3174C55.59 15.2655 55.3244 13.8524 54.2725 13.1299C53.8794 12.859 53.4013 12.7102 52.955 12.7049ZM42.33 19.4624C44.2106 19.2924 46.3091 19.8077 48.1525 21.1199L48.195 21.1624C52.0466 23.8134 53.1941 28.3077 51.255 31.1074H51.2125C50.235 32.6162 48.6041 33.4343 46.58 33.5299C46.6491 31.9734 46.0966 30.4221 44.88 29.2799C44.8694 29.2693 44.8481 29.2905 44.8375 29.2799C42.9835 27.4471 40.0935 27.139 37.9525 28.5574C36.6563 26.2252 36.5606 23.6912 37.825 21.8849C38.7919 20.4877 40.4494 19.6324 42.33 19.4624ZM31.3225 22.9474L24.82 33.1899L24.0975 34.3799L25.2875 35.0599L29.6225 37.6524L30.43 38.1624L31.195 37.5249L38.08 31.9574C38.4306 31.8458 38.7175 31.6015 38.8875 31.2774L39.2275 31.0224C40.3113 30.1193 41.9688 30.1937 42.9675 31.1924V31.2349H43.01C44.1256 32.2549 44.2266 33.8487 43.265 35.1024L32.9375 48.1499C31.2375 50.3334 28.8044 51.8262 26.095 52.4424L15.2575 54.8649L11.4325 42.0299L11.8575 41.8599L12.325 41.6899L12.58 41.3074L22.0575 26.6874C22.5941 25.933 23.1466 25.4708 23.9275 25.1574C23.9594 25.1468 23.9806 25.1255 24.0125 25.1149L31.3225 22.9474ZM34.425 23.1174C33.8991 25.4815 34.4303 28.0474 35.785 30.2999L30.2175 34.8474L27.88 33.4449L34.425 23.1174ZM51.765 34.4649L41.14 49.8499L37.23 47.0874L45.39 36.8024V36.7599H45.4325C45.56 36.5952 45.6663 36.4252 45.7725 36.2499C47.9825 36.3137 50.1128 35.7452 51.765 34.4649ZM8.45752 41.5624L13.8125 59.5399L8.79752 61.0699L3.44252 43.1349L8.45752 41.5624Z" fill="url(#paint0_linear_1_72)"/>
<defs>
<linearGradient id="paint0_linear_1_72" x1="34.0425" y1="0.847412" x2="34.0425" y2="64.4274" gradientUnits="userSpaceOnUse">
<stop stop-color="#FFC619"/>
<stop offset="0.520833" stop-color="#F69020"/>
<stop offset="1" stop-color="#EA422A"/>
</linearGradient>
</defs>
</svg>
