<svg width="80" height="80" viewBox="0 0 80 80" fill="none" xmlns="http://www.w3.org/2000/svg">
<path d="M40 0.440002C18.187 0.440002 0.440002 18.187 0.440002 40C0.440002 61.813 18.187 79.56 40 79.56C61.813 79.56 79.56 61.813 79.56 40C79.56 32.0932 77.2202 24.7255 73.2074 18.537L71.6722 20.0722L70.6912 21.0531C74.1106 26.5692 76.12 33.046 76.12 40C76.12 59.9176 59.9176 76.12 40 76.12C20.0824 76.12 3.88 59.9176 3.88 40C3.88 20.0824 20.0824 3.88 40 3.88C48.4509 3.88 56.203 6.834 62.36 11.7174V15.2078L58.1709 19.397C53.3199 15.1071 46.9692 12.48 40 12.48C24.8262 12.48 12.48 24.8262 12.48 40C12.48 55.1738 24.8262 67.52 40 67.52C55.1738 67.52 67.52 55.1738 67.52 40C67.52 34.2741 65.7579 28.9519 62.753 24.5435L60.2604 27.0362C62.665 30.7841 64.08 35.2253 64.08 40C64.08 53.2784 53.2784 64.08 40 64.08C26.7216 64.08 15.92 53.2784 15.92 40C15.92 26.7216 26.7216 15.92 40 15.92C46.0222 15.92 51.5156 18.159 55.7387 21.8291L49.638 27.9298C46.9916 25.8071 43.6491 24.52 40 24.52C31.4654 24.52 24.52 31.4654 24.52 40C24.52 48.5346 31.4654 55.48 40 55.48C48.5346 55.48 55.48 48.5346 55.48 40C55.48 37.6144 54.9215 35.3644 53.9548 33.3451L51.3312 35.9654C51.7818 37.2279 52.04 38.5844 52.04 40C52.04 46.6392 46.6392 52.04 40 52.04C33.3608 52.04 27.96 46.6392 27.96 40C27.96 33.3608 33.3608 27.96 40 27.96C42.7003 27.96 45.186 28.8648 47.1958 30.372L40.8869 36.6809C40.5978 36.6022 40.2996 36.5615 40 36.56C39.0877 36.56 38.2127 36.9224 37.5676 37.5676C36.9224 38.2127 36.56 39.0877 36.56 40C36.56 40.9123 36.9224 41.7873 37.5676 42.4324C38.2127 43.0776 39.0877 43.44 40 43.44C40.9123 43.44 41.7873 43.0776 42.4324 42.4324C43.0776 41.7873 43.44 40.9123 43.44 40C43.4399 39.6994 43.4003 39.4001 43.3224 39.1098L64.7922 17.64H69.24L77.84 9.04H70.96V2.16L64.2984 8.82164C57.5868 3.57787 49.1579 0.440002 40 0.440002Z" fill="url(#paint0_linear_1_254)"/>
<defs>
<linearGradient id="paint0_linear_1_254" x1="40" y1="0.440002" x2="40" y2="79.56" gradientUnits="userSpaceOnUse">
<stop stop-color="#FFC619"/>
<stop offset="0.479167" stop-color="#F69020"/>
<stop offset="1" stop-color="#EA422A"/>
</linearGradient>
</defs>
</svg>
