<svg width="80" height="80" viewBox="0 0 80 80" fill="none" xmlns="http://www.w3.org/2000/svg">
<path d="M40 0.450073C18.1784 0.450073 0.450073 18.1784 0.450073 40C0.450073 61.8215 18.1784 79.5499 40 79.5499C61.8215 79.5499 79.5499 61.8215 79.5499 40C79.5499 18.1784 61.8215 0.450073 40 0.450073ZM40 3.86992C44.4526 3.86992 48.7116 4.67865 52.648 6.14757L44.4814 25.2019C43.0613 24.7703 41.5583 24.5301 40 24.5301C31.4774 24.5301 24.5301 31.4774 24.5301 40C24.5301 41.5583 24.7703 43.0613 25.2019 44.4814L6.14757 52.648C4.67865 48.7116 3.86992 44.4526 3.86992 40C3.86992 20.0256 20.0256 3.86992 40 3.86992ZM55.779 7.52828C63.0498 11.0638 68.9362 16.9502 72.4717 24.221L53.4409 32.3776C52.0597 29.9545 50.0455 27.9403 47.6224 26.5591L55.779 7.52828ZM73.8524 27.3519C75.3213 31.2884 76.1301 35.5474 76.1301 40C76.1301 59.9744 59.9744 76.1301 40 76.1301C35.5474 76.1301 31.2884 75.3213 27.3519 73.8524L35.5186 54.798C36.9387 55.2297 38.4417 55.4699 40 55.4699C48.5226 55.4699 55.4699 48.5226 55.4699 40C55.4699 38.4417 55.2297 36.9387 54.798 35.5186L73.8524 27.3519ZM40 27.9499C46.6753 27.9499 52.0501 33.3247 52.0501 40C52.0501 46.6753 46.6753 52.0501 40 52.0501C33.3247 52.0501 27.9499 46.6753 27.9499 40C27.9499 33.3247 33.3247 27.9499 40 27.9499ZM40 34.84C37.15 34.84 34.84 37.15 34.84 40C34.84 42.85 37.15 45.16 40 45.16C42.85 45.16 45.16 42.85 45.16 40C45.16 37.15 42.85 34.84 40 34.84ZM26.5591 47.6224C27.9403 50.0455 29.9545 52.0597 32.3776 53.4409L24.221 72.4717C16.9502 68.9362 11.0638 63.0498 7.52828 55.779L26.5591 47.6224Z" fill="url(#paint0_linear_1_224)"/>
<defs>
<linearGradient id="paint0_linear_1_224" x1="40" y1="0.450073" x2="40" y2="79.5499" gradientUnits="userSpaceOnUse">
<stop stop-color="#FFC619"/>
<stop offset="0.5" stop-color="#F69020"/>
<stop offset="1" stop-color="#EA422A"/>
</linearGradient>
</defs>
</svg>
