<svg width="74" height="74" viewBox="0 0 74 74" fill="none" xmlns="http://www.w3.org/2000/svg">
<path d="M69.1 0.900019C66.9375 0.806269 64.9125 2.24377 64.35 4.40002L62.15 12.95L56.15 21.6L46.6 23.75C44.9813 24.1188 43.5 24.9563 42.4 26.2L35.8 33.55C34.9625 34.4813 34.325 35.6375 34 36.85L31.75 45.35C31.1375 47.6313 32.475 50.0188 34.75 50.65C37 51.275 39.375 49.9375 40.05 47.7L42.3 40.25L45.85 36.7C45.8188 37.6625 46.0563 38.3 45.85 39.3C45.4125 41.4563 44.75 43.25 44.75 43.25L38.55 55.2C38.2125 55.85 37.95 56.5438 37.8 57.25L35.55 68.1C34.9313 71.0375 37.2 73.9 40.2 73.9H40.7C42.9625 73.9 44.95 72.2625 45.4 70.05L47.5 59.7L52.85 50.1L57.2 55.75L58.75 69.65C59.0188 72.0563 61.0813 73.9 63.5 73.9C66.3063 73.9 68.5375 71.3938 68.25 68.6L66.75 53.8C66.6563 52.9 66.3875 52.0188 66 51.2L61.45 41.6C61.7938 40.65 63.5 35.5375 62.9 29.8L70.4 17.15C70.4625 17.0375 70.5125 16.925 70.55 16.8L73.4 6.85002C74.125 4.32502 72.6 1.68752 70.05 1.05002C69.7438 0.975019 69.4063 0.91252 69.1 0.900019ZM27.8 1.40002C27.2125 1.41252 26.6125 1.53752 26.05 1.80002C23.9438 2.77502 22.9375 5.24377 23.8 7.40002L26.6 14.5L22.05 22.6L14.4 23.65L9.60001 18.15L9.85001 15.95C10.1375 19.65 13.2313 22.6 17 22.6C20.9563 22.6 24.2 19.3563 24.2 15.4C24.2 11.4438 20.9563 8.20002 17 8.20002C13.8125 8.20002 11.0875 10.3125 10.15 13.2L10.6 9.45002C10.8938 6.95002 8.96251 4.68127 6.45001 4.55002H6.10001C3.78751 4.43127 1.74376 6.14377 1.50001 8.45002L0.350007 19.2C0.187508 20.7125 0.631257 22.1875 1.55001 23.4L9.30001 33.65L6.50001 39.85C5.36251 42.3563 4.91251 45.1125 5.20001 47.85L7.45001 69.35C7.71251 71.85 9.83751 73.8 12.35 73.8C15.2125 73.8 17.4875 71.3063 17.25 68.45L15.65 49.2L15.85 49.05L20.85 56.05L18.3 68C17.6625 70.9563 19.975 73.8 23 73.8C25.175 73.8 27.0563 72.3125 27.6 70.2L31 57.15C31.4 55.6 31.2 53.9688 30.45 52.55L25.1 42.4L27.65 31L35.35 18.1C36.1813 16.7063 36.3563 15.0063 35.75 13.5L31.95 4.15002C31.4875 2.99377 30.5813 2.12502 29.5 1.70002C28.9625 1.48752 28.3875 1.38752 27.8 1.40002ZM68.65 4.10002C68.8375 4.07502 69.05 4.10002 69.25 4.15002C70.0813 4.35627 70.5375 5.17502 70.3 6.00002L67.45 15.9L59.95 28.55C59.75 28.8625 59.6563 29.2313 59.7 29.6C60.45 34.95 58.25 41.2 58.25 41.2C58.0938 41.6063 58.1125 42.0563 58.3 42.45L63.1 52.55C63.3313 53.0438 63.4938 53.6063 63.55 54.15L65.05 68.95C65.15 69.9063 64.4625 70.7 63.5 70.7C62.6813 70.7 62.0438 70.1125 61.95 69.3L60.3 54.9C60.275 54.6125 60.1688 54.3375 60 54.1L53.95 46.25C53.6313 45.8063 53.1063 45.55 52.5563 45.5813C52.0125 45.6125 51.5188 45.9188 51.25 46.4L44.6 58.3C44.525 58.4438 44.475 58.5938 44.45 58.75L42.25 69.4C42.1 70.1438 41.4563 70.7 40.7 70.7H40.2C39.1625 70.7 38.4375 69.8188 38.65 68.8L40.95 57.9C41.0438 57.4688 41.2 57.0313 41.4 56.65L47.7 44.5C47.7375 44.4375 47.7688 44.3688 47.8 44.3C47.8 44.3 48.5125 42.3563 49 39.95C49.4875 37.5438 49.95 34.7313 48.8 32.35C48.575 31.8875 48.1438 31.5625 47.6375 31.475C47.1375 31.3875 46.6188 31.5438 46.25 31.9L39.8 38.2C39.6063 38.3938 39.4688 38.6375 39.4 38.9L37 46.8C36.8188 47.4063 36.2063 47.7188 35.6 47.55C34.9875 47.3813 34.6813 46.7688 34.85 46.15L37.1 37.65C37.2938 36.925 37.6438 36.2625 38.15 35.7L44.8 28.35C44.8 28.3313 44.8 28.3188 44.8 28.3C45.4563 27.5625 46.3313 27.0688 47.3 26.85L57.45 24.55C57.8563 24.4688 58.2125 24.2375 58.45 23.9L64.95 14.5C65.0688 14.3313 65.15 14.15 65.2 13.95L67.45 5.20002C67.6063 4.59377 68.0813 4.18127 68.65 4.10002ZM27.9 4.60002C28.375 4.58752 28.8 4.86252 29 5.35002L32.75 14.7C32.9813 15.2813 32.9188 15.9125 32.6 16.45L24.75 29.6C24.6625 29.7375 24.5938 29.8875 24.55 30.05L21.8 42.25C21.7188 42.625 21.7688 43.0125 21.95 43.35L27.65 54.05C28.025 54.7563 28.1 55.575 27.9 56.35L24.5 69.4C24.3125 70.1125 23.7375 70.6 23 70.6C21.9438 70.6 21.175 69.6813 21.4 68.65L24.15 56.05C24.2438 55.6188 24.15 55.1625 23.9 54.8L17.5 45.85C17.25 45.5 16.8688 45.2688 16.45 45.2063C16.025 45.1375 15.5938 45.2438 15.25 45.5L13 47.25C12.575 47.5875 12.35 48.1125 12.4 48.65L14.1 68.7C14.1875 69.7375 13.3875 70.6 12.35 70.6C11.45 70.6 10.6938 69.95 10.6 69.05L8.40001 47.5C8.17501 45.325 8.49376 43.1375 9.40001 41.15L12.6 34.1C12.8438 33.5813 12.7813 32.9688 12.45 32.5L4.10001 21.5C3.67501 20.9375 3.47501 20.2 3.55001 19.5L4.70001 8.80002C4.76876 8.15627 5.25626 7.71877 5.90001 7.75002H6.30001C7.01251 7.78752 7.48126 8.39377 7.40001 9.10002L6.30001 18.45C6.25001 18.9063 6.39376 19.3625 6.70001 19.7L12.6 26.4C12.9563 26.8188 13.5063 27.0313 14.05 26.95L23.3 25.65C23.7875 25.575 24.2125 25.2813 24.45 24.85L29.8 15.35C30.0313 14.9375 30.0688 14.4438 29.9 14L26.8 6.20002C26.5563 5.59377 26.8125 4.97502 27.4 4.70002C27.5563 4.62502 27.7438 4.60627 27.9 4.60002ZM49 8.20002C45.0438 8.20002 41.8 11.4438 41.8 15.4C41.8 19.3563 45.0438 22.6 49 22.6C52.9563 22.6 56.2 19.3563 56.2 15.4C56.2 11.4438 52.9563 8.20002 49 8.20002ZM17 11.4C19.225 11.4 21 13.175 21 15.4C21 17.625 19.225 19.4 17 19.4C14.775 19.4 13 17.625 13 15.4C13 13.175 14.775 11.4 17 11.4ZM49 11.4C51.225 11.4 53 13.175 53 15.4C53 17.625 51.225 19.4 49 19.4C46.775 19.4 45 17.625 45 15.4C45 13.175 46.775 11.4 49 11.4Z" fill="url(#paint0_linear_1_234)"/>
<defs>
<linearGradient id="paint0_linear_1_234" x1="36.9489" y1="0.895691" x2="36.9489" y2="73.9" gradientUnits="userSpaceOnUse">
<stop stop-color="#FFC619"/>
<stop offset="0.489583" stop-color="#F69020"/>
<stop offset="1" stop-color="#EA422A"/>
</linearGradient>
</defs>
</svg>
