<svg width="20" height="30" viewBox="0 0 20 30" fill="none" xmlns="http://www.w3.org/2000/svg">
<path d="M10 0.719971C4.73883 0.719971 0.480011 4.97879 0.480011 10.24C0.480011 14.5975 2.76135 19.2525 5.00228 22.8638C7.2432 26.4751 9.48735 29.0475 9.48735 29.0475C9.55158 29.1211 9.63089 29.18 9.71991 29.2202C9.80893 29.2604 9.90555 29.2809 10.0032 29.2804C10.1009 29.2799 10.1973 29.2584 10.2859 29.2173C10.3745 29.1762 10.4532 29.1165 10.5167 29.0422C10.5167 29.0422 12.7594 26.4206 14.9991 22.7854C17.2388 19.1502 19.52 14.5017 19.52 10.24C19.52 4.97879 15.2612 0.719971 10 0.719971ZM10 2.07997C14.5308 2.07997 18.16 5.70916 18.16 10.24C18.16 14.0023 16.0213 18.5334 13.8409 22.0722C12.0709 24.9452 10.5988 26.7788 9.99603 27.5122C9.39007 26.7879 7.92296 24.9913 6.15774 22.1466C3.97867 18.6349 1.84001 14.1104 1.84001 10.24C1.84001 5.70916 5.4692 2.07997 10 2.07997ZM10 5.47997C7.3851 5.47997 5.24001 7.62506 5.24001 10.24C5.24001 12.8549 7.3851 15 10 15C12.6149 15 14.76 12.8549 14.76 10.24C14.76 7.62506 12.6149 5.47997 10 5.47997ZM10 6.83997C11.8731 6.83997 13.4 8.36688 13.4 10.24C13.4 12.1131 11.8731 13.64 10 13.64C8.12692 13.64 6.60001 12.1131 6.60001 10.24C6.60001 8.36688 8.12692 6.83997 10 6.83997Z" fill="#606571"/>
</svg>
