<svg width="56" height="68" viewBox="0 0 56 68" fill="none" xmlns="http://www.w3.org/2000/svg">
<path d="M39.6 0.3125C31.1781 0.3125 24.2766 7.11016 24.1125 15.4937C23.3031 16.768 12.568 33.6883 4.11877 42.1375L4.16252 42.1812C4.04768 42.2687 3.63752 42.5094 3.37502 43.1875C3.07424 43.9641 3.31487 45.2711 4.16252 46.1187L6.13127 48.0875L3.76877 50.45C1.35159 52.8672 0.274242 55.607 0.356274 58.1937C0.438305 60.7805 1.59768 63.1539 3.37502 64.8438C6.92424 68.2234 13.1258 69.0055 17.725 64.4062L36.9313 45.2C40.6664 41.4648 44.7516 42.2359 47.2563 44.675C48.5086 45.8945 49.318 47.5461 49.3563 49.3125C49.3946 51.0789 48.7219 53.0094 46.775 54.9562L37.8938 63.8375C37.3141 64.4172 37.3141 65.3578 37.8938 65.9375C38.4735 66.5172 39.4141 66.5172 39.9938 65.9375L48.8313 57.0562C51.2485 54.6391 52.3422 51.8664 52.2875 49.2687C52.2328 46.6711 51.0735 44.2867 49.3125 42.575C47.5516 40.8633 45.118 39.8078 42.5313 39.775C39.9446 39.7422 37.2321 40.743 34.875 43.1L15.6688 62.3062C12.0813 65.8937 7.96877 65.1172 5.43127 62.7C4.16252 61.4914 3.34221 59.8453 3.28752 58.1063C3.23284 56.3672 3.87815 54.4531 5.82502 52.5062L5.95627 52.4188L8.18752 50.1875L9.23752 51.1937C10.0742 52.0305 11.2281 52.3477 12.0375 52.1125C12.743 51.9102 12.9891 51.4453 13.0875 51.325L13.175 51.4125C21.411 43.1711 38.6266 32.1078 39.9063 31.2875C48.2953 31.1234 55.0875 24.2273 55.0875 15.8C55.0875 7.27422 48.1203 0.3125 39.6 0.3125ZM39.6 3.2875C46.5289 3.2875 52.1125 8.86562 52.1125 15.8C52.1125 18.5727 51.2211 21.1266 49.7063 23.1938L32.2063 5.69375C34.2735 4.17891 36.8274 3.2875 39.6 3.2875ZM30.0625 7.70625L47.7375 25.3375C45.5555 27.2023 42.7117 28.3125 39.6 28.3125C32.6656 28.3125 27.0875 22.7398 27.0875 15.8C27.0875 12.6992 28.2086 9.88828 30.0625 7.70625ZM24.6813 19.8687C26.1305 25.157 30.3196 29.3461 35.6188 30.7625C29.9149 34.525 18.0313 42.6023 11.2938 49.3125C11.2719 49.2852 11.2774 49.2961 11.2063 49.225L6.13127 44.1063C12.9781 37.243 20.968 25.5508 24.6813 19.8687ZM24.4625 29.1437C24.0414 29.1437 23.5985 29.3078 23.2813 29.625L19.5188 33.4312C18.8789 34.0711 18.8789 35.1102 19.5188 35.75L19.65 35.8812C20.2844 36.5211 21.3289 36.5211 21.9688 35.8812L25.775 32.075C26.4149 31.4406 26.4094 30.3961 25.775 29.7563L25.6 29.625C25.2828 29.3078 24.8836 29.1437 24.4625 29.1437Z" fill="url(#paint0_linear_1_60)"/>
<defs>
<linearGradient id="paint0_linear_1_60" x1="27.7197" y1="0.3125" x2="27.7197" y2="67.6185" gradientUnits="userSpaceOnUse">
<stop stop-color="#FFC619"/>
<stop offset="0.520833" stop-color="#F69020"/>
<stop offset="1" stop-color="#EA422A"/>
</linearGradient>
</defs>
</svg>
