<svg width="48" height="26" viewBox="0 0 48 26" fill="none" xmlns="http://www.w3.org/2000/svg">
<path d="M24 0C10.6701 0 0.240247 12.3496 0.240247 12.3496C0.0851281 12.5308 -0.00012207 12.7615 -0.00012207 13C-0.00012207 13.2385 0.0851281 13.4692 0.240247 13.6504C0.240247 13.6504 10.6701 26 24 26C37.3299 26 47.7598 13.6504 47.7598 13.6504C47.9149 13.4692 48.0001 13.2385 48.0001 13C48.0001 12.7615 47.9149 12.5308 47.7598 12.3496C47.7598 12.3496 37.3299 0 24 0ZM24 2C26.6661 2 29.2122 2.55316 31.5684 3.4043C33.14 5.20828 34 7.3937 34 10C34 15.5645 29.5645 20 24 20C18.4355 20 14 15.5645 14 10C14 7.52965 14.9535 5.21556 16.4434 3.40039C18.7963 2.55165 21.3383 2 24 2ZM13.1934 4.81055C12.4421 6.39239 12 8.15076 12 10C12 16.6355 17.3645 22 24 22C30.6355 22 36 16.6355 36 10C36 8.13383 35.5999 6.40067 34.8692 4.8418C40.5284 7.71958 44.5867 11.8972 45.6055 13C44.0111 14.7259 34.9922 24 24 24C13.0079 24 3.98889 14.7259 2.39454 13C3.417 11.8931 7.5017 7.6892 13.1934 4.81055ZM24 5C22.6739 5 21.4022 5.52678 20.4645 6.46447C19.5268 7.40215 19 8.67392 19 10C19 11.3261 19.5268 12.5979 20.4645 13.5355C21.4022 14.4732 22.6739 15 24 15C25.3261 15 26.5979 14.4732 27.5355 13.5355C28.4732 12.5979 29 11.3261 29 10C29 8.67392 28.4732 7.40215 27.5355 6.46447C26.5979 5.52678 25.3261 5 24 5Z" fill="white"/>
</svg>
