<svg width="27" height="27" viewBox="0 0 27 27" fill="none" xmlns="http://www.w3.org/2000/svg">
<path d="M15.6931 0.17818C15.5458 0.189508 15.4008 0.209899 15.2581 0.25068L5.03559 3.15068C3.88692 3.47693 3.20497 4.68451 3.53122 5.83318L8.31622 22.6532C8.32528 22.7098 8.34341 22.7642 8.37059 22.8163L9.05935 25.2632C9.3856 26.4119 10.5932 27.0757 11.7418 26.7494L21.9643 23.8494C23.113 23.5232 23.795 22.3156 23.4687 21.1669L22.7981 18.8107C22.8072 18.6747 22.7686 18.5411 22.6893 18.4301L17.9406 1.73693C17.6959 0.875993 16.9686 0.284665 16.1281 0.17818C15.9876 0.160055 15.8404 0.166852 15.6931 0.17818ZM15.7837 1.32006C16.2572 1.28381 16.699 1.5874 16.835 2.06318L21.4568 18.3757L9.27684 21.8194L4.65497 5.50693C4.50091 4.96091 4.81583 4.41037 5.36185 4.25631L15.5843 1.35631C15.6523 1.33591 15.7158 1.32459 15.7837 1.32006ZM21.1487 5.18068C20.9811 5.20787 20.8338 5.30982 20.7454 5.45709C20.6593 5.60209 20.639 5.78107 20.6956 5.94193L23.5956 16.1644C23.6862 16.4748 24.0102 16.6538 24.3206 16.5632C24.631 16.4726 24.81 16.1486 24.7193 15.8382L21.8193 5.61568C21.7536 5.35966 21.5225 5.18068 21.2575 5.18068C21.2393 5.18068 21.2212 5.18068 21.2031 5.18068C21.185 5.18068 21.1668 5.18068 21.1487 5.18068ZM24.4293 7.01131C24.2617 7.03849 24.1144 7.14045 24.0261 7.28771C23.94 7.43271 23.9196 7.6117 23.9762 7.77256L25.4262 12.8838C25.5168 13.1942 25.8408 13.3732 26.1512 13.2826C26.4616 13.1919 26.6406 12.8679 26.55 12.5576L25.1 7.44631C25.0343 7.19029 24.8032 7.01131 24.5381 7.01131C24.52 7.01131 24.5018 7.01131 24.4837 7.01131C24.4656 7.01131 24.4475 7.01131 24.4293 7.01131ZM2.78809 10.4007C2.76997 10.4052 2.75185 10.412 2.73372 10.4188C2.5706 10.4483 2.4256 10.5457 2.3395 10.6884C2.25341 10.8311 2.23075 11.0033 2.2806 11.1619L5.1806 21.3844C5.27122 21.6948 5.5952 21.8738 5.9056 21.7832C6.21599 21.6926 6.39497 21.3686 6.30435 21.0582L3.40435 10.8357C3.33864 10.5797 3.10755 10.4007 2.84247 10.4007C2.82435 10.4007 2.80622 10.4007 2.78809 10.4007ZM0.95747 13.6813C0.939345 13.6858 0.92122 13.6926 0.903095 13.6994C0.73997 13.7289 0.59497 13.8263 0.508877 13.969C0.422783 14.1118 0.400127 14.284 0.44997 14.4426L1.89997 19.5538C1.9906 19.8642 2.31458 20.0432 2.62497 19.9526C2.93536 19.8619 3.11435 19.5379 3.02372 19.2276L1.57372 14.1163C1.50802 13.8603 1.27692 13.6813 1.01185 13.6813C0.99372 13.6813 0.975595 13.6813 0.95747 13.6813ZM21.7831 19.4994L22.345 21.4932C22.499 22.0392 22.1841 22.5897 21.6381 22.7438L11.4156 25.6438C10.8696 25.7979 10.319 25.4829 10.165 24.9369L9.6031 22.9432L21.7831 19.4994ZM16.0556 21.9101C16.0035 21.9146 15.9446 21.9123 15.8925 21.9282C15.4688 22.0483 15.2286 22.5014 15.3487 22.9251C15.4688 23.3487 15.9038 23.5889 16.3275 23.4688C16.7511 23.3487 16.9913 22.9137 16.8712 22.4901C16.767 22.1185 16.4249 21.8829 16.0556 21.9101Z" fill="#606571"/>
</svg>
